<?xml version="1.0" encoding="UTF-8" standalone="no"?>
<svg
   xmlns:dc="http://purl.org/dc/elements/1.1/"
   xmlns:cc="http://creativecommons.org/ns#"
   xmlns:rdf="http://www.w3.org/1999/02/22-rdf-syntax-ns#"
   xmlns:svg="http://www.w3.org/2000/svg"
   xmlns="http://www.w3.org/2000/svg"
   id="svg8"
   version="1.1"
   viewBox="0 0 529.16668 105.83333"
   height="400"
   width="2000">
  <defs
     id="defs2" />
  <metadata
     id="metadata5">
    <rdf:RDF>
      <cc:Work
         rdf:about="">
        <dc:format>image/svg+xml</dc:format>
        <dc:type
           rdf:resource="http://purl.org/dc/dcmitype/StillImage" />
        <dc:title></dc:title>
      </cc:Work>
    </rdf:RDF>
  </metadata>
  <g
     transform="translate(0,-191.16668)"
     id="layer1">
    <g
       id="text3715"
       style="font-style:normal;font-weight:normal;font-size:65.6166687px;line-height:1.25;font-family:sans-serif;text-align:center;letter-spacing:0px;word-spacing:0px;text-anchor:middle;fill:#000000;fill-opacity:1;stroke:none;stroke-width:0.26458332"
       aria-label="Read about David">
      <path
         id="path41"
         style="font-style:normal;font-variant:normal;font-weight:normal;font-stretch:normal;font-size:65.6166687px;font-family:'Bree Serif';-inkscape-font-specification:'Bree Serif';text-align:center;text-anchor:middle;fill:#ffffff;fill-opacity:1"
         d="m 28.575001,269.66934 v -5.31495 l 2.16535,-0.19685 q 1.902884,-0.19685 1.902884,-1.83726 v -30.51176 l -3.740151,-0.19685 v -5.57741 h 17.913351 q 7.611534,0 11.679767,2.82151 4.068233,2.82152 4.068233,9.25195 0,4.46194 -2.3622,7.34907 -2.296583,2.88713 -5.5118,4.19947 2.3622,0.85301 3.74015,4.00261 l 4.7244,10.30182 3.740151,0.13124 v 5.57741 H 50.687818 v -5.31495 l 1.902884,-0.19685 q 1.509183,-0.19685 1.509183,-1.1811 0,-0.3937 -0.262466,-0.91863 l -3.083984,-6.56167 q -0.721783,-1.64042 -1.640417,-2.29658 -0.853016,-0.72179 -2.493433,-0.72179 h -5.971117 v 11.41731 l 4.265084,0.19685 v 5.57741 z m 12.073467,-23.42515 h 5.70865 q 8.070851,0 8.070851,-7.21783 0,-4.13385 -2.165351,-5.38057 -2.099733,-1.24672 -6.824133,-1.24672 h -4.790017 z" />
      <path
         id="path43"
         style="font-style:normal;font-variant:normal;font-weight:normal;font-stretch:normal;font-size:65.6166687px;font-family:'Bree Serif';-inkscape-font-specification:'Bree Serif';text-align:center;text-anchor:middle;fill:#ffffff;fill-opacity:1"
         d="m 86.248978,235.67991 q 4.92125,0 7.808384,2.42781 2.887133,2.3622 2.887133,6.6929 0,2.88714 -1.246717,5.1181 -1.246716,2.16535 -3.083983,3.41207 -1.837267,1.24672 -4.461934,2.03412 -4.396316,1.31233 -9.908117,1.31233 0.19685,3.47769 2.165351,5.64304 1.9685,2.09973 6.036733,2.09973 4.068234,0 8.136467,-2.88713 l 2.493433,5.31495 q -1.312333,1.1811 -4.461933,2.42781 -3.083983,1.24672 -7.0866,1.24672 -8.005234,0 -11.745384,-4.39632 -3.74015,-4.46193 -3.74015,-12.2047 0,-7.74277 4.265083,-12.9921 4.265084,-5.24933 11.942234,-5.24933 z m -3.018367,15.02621 q 2.427817,-0.45931 4.461934,-1.90288 2.034117,-1.50918 2.034117,-3.5433 0,-4.00262 -3.937001,-4.00262 -3.674533,0 -5.643033,2.95275 -1.9685,2.88714 -2.16535,6.95537 2.887133,-0.0656 5.249333,-0.45932 z" />
      <path
         id="path45"
         style="font-style:normal;font-variant:normal;font-weight:normal;font-stretch:normal;font-size:65.6166687px;font-family:'Bree Serif';-inkscape-font-specification:'Bree Serif';text-align:center;text-anchor:middle;fill:#ffffff;fill-opacity:1"
         d="m 131.02415,237.97649 v 24.4094 q 0,1.04987 0.32808,1.44357 0.3937,0.3937 1.31233,0.45932 l 2.09974,0.13123 v 5.24933 h -10.43305 v -3.80576 l -0.19685,-0.0656 q -3.28084,4.7244 -8.98949,4.7244 -6.6929,0 -9.90811,-4.26508 -3.21522,-4.26509 -3.21522,-11.67977 0,-8.92387 4.3307,-13.91074 4.3307,-4.98686 12.9921,-4.98686 5.57742,0 11.67977,2.29658 z m -7.61154,21.2598 v -16.99472 q -1.83726,-0.85301 -5.05248,-0.85301 -4.39632,0 -6.36482,3.5433 -1.9685,3.5433 -1.9685,9.38318 0,10.6299 6.82414,10.6299 2.88713,0 4.7244,-1.70603 1.83726,-1.77165 1.83726,-4.00262 z" />
      <path
         id="path47"
         style="font-style:normal;font-variant:normal;font-weight:normal;font-stretch:normal;font-size:65.6166687px;font-family:'Bree Serif';-inkscape-font-specification:'Bree Serif';text-align:center;text-anchor:middle;fill:#ffffff;fill-opacity:1"
         d="m 155.19774,235.67991 q 2.82152,0 5.38057,0.7874 v -6.62729 q 0,-1.44356 -1.70603,-1.5748 l -2.82152,-0.19685 v -5.18371 h 12.2047 v 39.89493 q 0.0656,1.50919 1.64042,1.50919 l 2.29658,0.13123 v 5.24933 h -10.6299 v -3.87138 l -0.19685,-0.0656 q -2.95275,4.79002 -8.92387,4.79002 -7.4803,0 -10.49866,-4.98687 -2.7559,-4.52755 -2.7559,-11.08922 0,-8.53016 4.19946,-13.64826 4.26509,-5.1181 11.811,-5.1181 z m 5.38057,23.75323 v -16.99472 q -2.3622,-1.04986 -4.98687,-1.04986 -4.3307,0 -6.36481,3.47768 -1.9685,3.47768 -1.9685,8.85825 0,11.0236 7.0866,11.0236 2.69028,0 4.46193,-1.50918 1.77165,-1.5748 1.77165,-3.80577 z" />
      <path
         id="path49"
         style="font-style:normal;font-variant:normal;font-weight:normal;font-stretch:normal;font-size:60.67777634px;font-family:Loka-Italic;-inkscape-font-specification:Loka-Italic;text-align:center;text-anchor:middle;fill:#ffffff;fill-opacity:1"
         d="m 213.1206,241.15079 -3.8227,21.844 0.12135,3.33727 h 2.36644 l -0.5461,2.85186 q -0.66746,0.24271 -2.79118,0.5461 -2.12372,0.36407 -3.57999,0.36407 l 0.0607,-6.79591 h -0.24271 q -4.55084,7.0993 -10.19387,7.0993 -9.52641,0 -6.85659,-14.92674 1.21356,-7.22065 5.27897,-11.52878 4.12609,-4.30812 10.73997,-4.30812 4.55083,0 9.46573,1.51695 z m -15.8369,25.1206 q 3.2766,0 7.52404,-5.27897 l 3.03389,-17.17181 q -2.42711,-0.66746 -4.73286,-0.66746 -3.8227,0 -6.49253,3.33728 -2.66982,3.33728 -3.64066,8.98031 -1.94169,10.80065 4.30812,10.80065 z" />
      <path
         id="path51"
         style="font-style:normal;font-variant:normal;font-weight:normal;font-stretch:normal;font-size:60.67777634px;font-family:Loka-Italic;-inkscape-font-specification:Loka-Italic;text-align:center;text-anchor:middle;fill:#ffffff;fill-opacity:1"
         d="m 217.71979,227.55897 0.60678,-2.97322 6.85659,-0.48542 h 2.48779 l -4.85423,23.36095 h 0.42475 q 2.36643,-3.33728 5.52168,-5.58236 3.21592,-2.24508 6.31049,-2.24508 4.9149,0 6.31048,3.8227 1.45627,3.8227 0,11.10404 -1.27423,7.28133 -5.70371,11.58945 -4.42947,4.24745 -11.16471,4.24745 -6.91726,0 -10.25454,-1.57763 l 7.15998,-40.89682 z m 14.01657,16.44367 q -3.51931,0 -8.49489,5.64304 l -2.97321,16.56503 q 2.12372,0.66745 4.79354,0.66745 4.00474,0 6.73524,-3.2766 2.79117,-3.33727 3.8227,-9.04098 1.03152,-5.52168 0.12135,-8.00947 -0.84949,-2.54847 -4.00473,-2.54847 z" />
      <path
         id="path53"
         style="font-style:normal;font-variant:normal;font-weight:normal;font-stretch:normal;font-size:60.67777634px;font-family:Loka-Italic;-inkscape-font-specification:Loka-Italic;text-align:center;text-anchor:middle;fill:#ffffff;fill-opacity:1"
         d="m 244.45784,255.10668 q 1.33491,-7.22066 6.06777,-11.34675 4.79355,-4.12609 11.4681,-4.12609 6.37117,0 8.79828,4.06541 2.48779,4.00474 1.15288,11.40743 -1.27424,7.34201 -5.88575,11.34674 -4.61151,3.94406 -11.52877,3.94406 -12.74234,0 -10.07251,-15.2908 z m 5.40032,0 q -2.00237,11.52877 5.58235,11.52877 4.12609,0 7.0993,-2.91253 3.03389,-2.91253 4.06541,-8.61624 2.00237,-11.71082 -5.52167,-11.77149 -4.06541,0.0607 -7.0993,3.09456 -3.03389,2.97321 -4.12609,8.67693 z" />
      <path
         id="path55"
         style="font-style:normal;font-variant:normal;font-weight:normal;font-stretch:normal;font-size:60.67777634px;font-family:Loka-Italic;-inkscape-font-specification:Loka-Italic;text-align:center;text-anchor:middle;fill:#ffffff;fill-opacity:1"
         d="m 285.16978,266.39274 q 3.8227,0 8.1915,-5.09693 l 3.64066,-20.81248 h 5.58236 l -4.61151,25.84873 3.70134,0.30339 -0.5461,2.42711 q -5.09693,0.91017 -8.25218,1.03153 l 0.72814,-6.79591 h -0.30339 q -2.00237,2.79117 -5.03626,4.97557 -3.03388,2.12373 -6.61387,2.12373 -3.76203,0 -5.15761,-2.30576 -1.39559,-2.36643 -0.5461,-7.22066 l 2.97321,-16.98977 -3.70135,-0.36407 0.60678,-2.79118 6.79591,-0.5461 h 2.48779 l -3.39796,19.72028 q -0.60677,3.33728 0.18204,4.9149 0.78881,1.57762 3.2766,1.57762 z" />
      <path
         id="path57"
         style="font-style:normal;font-variant:normal;font-weight:normal;font-stretch:normal;font-size:60.67777634px;font-family:Loka-Italic;-inkscape-font-specification:Loka-Italic;text-align:center;text-anchor:middle;fill:#ffffff;fill-opacity:1"
         d="m 305.08062,243.69925 0.60678,-3.21592 h 3.8227 q 2.30575,-6.06778 3.8227,-8.37353 h 3.21592 l -1.51695,8.37353 h 6.97795 l -0.5461,3.21592 h -6.97795 l -3.45863,19.47757 q -0.36407,2.42711 0.0607,3.15524 0.48542,0.72814 2.06304,0.72814 2.97321,0 4.85423,-0.72814 l -0.48543,2.79118 q -2.60914,1.27424 -7.52404,1.27424 -2.97321,0 -4.12609,-1.45627 -1.15288,-1.45627 -0.48542,-5.27897 l 3.51931,-19.96299 z" />
      <path
         id="path59"
         style="font-style:normal;font-variant:normal;font-weight:normal;font-stretch:normal;font-size:65.6166687px;font-family:'Bree Serif';-inkscape-font-specification:'Bree Serif';text-align:center;text-anchor:middle;fill:#ffffff;fill-opacity:1"
         d="m 333.29678,269.66934 v -5.31495 l 2.16535,-0.19685 q 1.90288,-0.19685 1.90288,-1.83726 v -30.51176 l -3.74015,-0.19685 v -5.57741 h 17.97897 q 9.64565,0 15.02622,5.1181 5.44618,5.1181 5.44618,15.15745 0,6.23358 -1.64042,10.89236 -1.64041,4.59317 -4.46193,7.21784 -5.64303,5.24933 -14.04197,5.24933 z m 12.07347,-37.27027 v 30.97107 h 6.6929 q 5.64303,0 8.79263,-4.06823 3.1496,-4.06824 3.1496,-11.811 0,-15.09184 -12.79525,-15.09184 z" />
      <path
         id="path61"
         style="font-style:normal;font-variant:normal;font-weight:normal;font-stretch:normal;font-size:65.6166687px;font-family:'Bree Serif';-inkscape-font-specification:'Bree Serif';text-align:center;text-anchor:middle;fill:#ffffff;fill-opacity:1"
         d="m 406.26663,237.97649 v 24.4094 q 0,1.04987 0.32808,1.44357 0.3937,0.3937 1.31233,0.45932 l 2.09974,0.13123 v 5.24933 h -10.43305 v -3.80576 l -0.19685,-0.0656 q -3.28084,4.7244 -8.98949,4.7244 -6.6929,0 -9.90812,-4.26508 -3.21521,-4.26509 -3.21521,-11.67977 0,-8.92387 4.3307,-13.91074 4.3307,-4.98686 12.9921,-4.98686 5.57742,0 11.67977,2.29658 z m -7.61154,21.2598 v -16.99472 q -1.83726,-0.85301 -5.05248,-0.85301 -4.39632,0 -6.36482,3.5433 -1.9685,3.5433 -1.9685,9.38318 0,10.6299 6.82414,10.6299 2.88713,0 4.7244,-1.70603 1.83726,-1.77165 1.83726,-4.00262 z" />
      <path
         id="path63"
         style="font-style:normal;font-variant:normal;font-weight:normal;font-stretch:normal;font-size:65.6166687px;font-family:'Bree Serif';-inkscape-font-specification:'Bree Serif';text-align:center;text-anchor:middle;fill:#ffffff;fill-opacity:1"
         d="m 431.35475,236.66416 h 13.84511 v 5.1181 l -2.03411,0.13123 q -1.31234,0.13123 -1.77165,1.5748 l -8.46455,26.18105 H 422.8902 l -9.18634,-26.11543 q -0.32808,-0.91864 -0.72178,-1.24672 -0.32808,-0.32808 -1.1811,-0.3937 l -1.90288,-0.13123 v -5.1181 h 15.41991 v 5.24933 l -4.00261,0.19685 6.75851,21.58789 h 0.13124 l 6.56166,-21.58789 -3.41206,-0.19685 z" />
      <path
         id="path65"
         style="font-style:normal;font-variant:normal;font-weight:normal;font-stretch:normal;font-size:65.6166687px;font-family:'Bree Serif';-inkscape-font-specification:'Bree Serif';text-align:center;text-anchor:middle;fill:#ffffff;fill-opacity:1"
         d="m 459.93694,236.66416 v 27.559 l 3.74015,0.19685 v 5.24933 h -15.61676 v -4.98686 l 2.16535,-0.19685 q 1.90288,-0.19685 1.90288,-2.09974 v -18.24143 q 0,-1.11549 -0.3937,-1.50919 -0.32808,-0.3937 -1.24672,-0.3937 l -2.29658,-0.13123 v -5.44618 z m -8.2677,-5.64304 q -1.37795,-1.37795 -1.37795,-3.47768 0,-2.09973 1.37795,-3.47768 1.37795,-1.44357 3.60892,-1.44357 2.23097,0 3.60892,1.44357 1.44356,1.37795 1.44356,3.47768 0,2.09973 -1.44356,3.47768 -1.37795,1.31234 -3.60892,1.31234 -2.23097,0 -3.60892,-1.31234 z" />
      <path
         id="path67"
         style="font-style:normal;font-variant:normal;font-weight:normal;font-stretch:normal;font-size:65.6166687px;font-family:'Bree Serif';-inkscape-font-specification:'Bree Serif';text-align:center;text-anchor:middle;fill:#ffffff;fill-opacity:1"
         d="m 484.01006,235.67991 q 2.82152,0 5.38057,0.7874 v -6.62729 q 0,-1.44356 -1.70604,-1.5748 l -2.82151,-0.19685 v -5.18371 h 12.2047 v 39.89493 q 0.0656,1.50919 1.64041,1.50919 l 2.29659,0.13123 v 5.24933 h -10.6299 v -3.87138 l -0.19685,-0.0656 q -2.95275,4.79002 -8.92387,4.79002 -7.4803,0 -10.49867,-4.98687 -2.7559,-4.52755 -2.7559,-11.08922 0,-8.53016 4.19947,-13.64826 4.26508,-5.1181 11.811,-5.1181 z m 5.38057,23.75323 v -16.99472 q -2.3622,-1.04986 -4.98687,-1.04986 -4.3307,0 -6.36482,3.47768 -1.9685,3.47768 -1.9685,8.85825 0,11.0236 7.0866,11.0236 2.69029,0 4.46194,-1.50918 1.77165,-1.5748 1.77165,-3.80577 z" />
    </g>
    <flowRoot
       style="fill:black;fill-opacity:1;stroke:none;font-family:sans-serif;font-style:normal;font-weight:normal;font-size:40px;line-height:1.25;letter-spacing:0px;word-spacing:0px"
       id="flowRoot3830"
       xml:space="preserve"><flowRegion
         id="flowRegion3832"><rect
           y="-342.11484"
           x="114.94035"
           height="191.15079"
           width="66.215637"
           id="rect3834" /></flowRegion><flowPara
         id="flowPara3836" /></flowRoot>    <flowRoot
       style="fill:black;fill-opacity:1;stroke:none;font-family:sans-serif;font-style:normal;font-weight:normal;font-size:40px;line-height:1.25;letter-spacing:0px;word-spacing:0px"
       id="flowRoot3838"
       xml:space="preserve"><flowRegion
         id="flowRegion3840"><rect
           y="225.08185"
           x="860.45593"
           height="309.19873"
           width="431.11139"
           id="rect3842" /></flowRegion><flowPara
         id="flowPara3844" /></flowRoot>  </g>
</svg>
